<?xml version="1.0" encoding="utf-8"?>
<!-- Generator: Adobe Illustrator 25.4.0, SVG Export Plug-In . SVG Version: 6.00 Build 0)  -->
<svg version="1.1" id="Camada_1" xmlns="http://www.w3.org/2000/svg" xmlns:xlink="http://www.w3.org/1999/xlink" x="0px" y="0px"
	 viewBox="0 0 314.56 277.86" style="enable-background:new 0 0 314.56 277.86;" xml:space="preserve">
<style type="text/css">
	.st0{fill:#F3E600;}
	.st1{opacity:0.35;fill:#24388D;enable-background:new    ;}
	.st2{opacity:0.81;fill:#24388D;enable-background:new    ;}
	.st3{fill:#24388D;}
	.st4{enable-background:new    ;}
	.st5{fill:#D1D1D1;}
</style>
<g id="Camada_3">
</g>
<g id="background">
	<g id="Camada_4">
	</g>
</g>
<g id="LOGO_00000025430442618270952760000004446189538371737254_">
</g>
<g id="PALAVRA">
	<g>
		<path class="st0" d="M272.66,240.78H45.81c-6.6,0-12-5.4-12-12V22.05c0-6.6,5.4-12,12-12h226.85c6.6,0,12,5.4,12,12v206.73
			C284.66,235.38,279.26,240.78,272.66,240.78z"/>
		<g>
			<path class="st1" d="M198.89,126.76c-1.78,0.01-3.55-0.42-4.86-1.8c-0.25-0.26-0.47-0.55-0.66-0.86c-1.3-2.1-0.8-4.32,0.1-6.12
				l-9.38-9.35l-1.14-1.14c-15.55,7.09-35.11,11.35-52.15,11.45c-24.23,0.14-41.52-8.18-40.48-20.44
				c1.26-14.96,29.08-32.77,66.34-37.02c5.51-0.63,10.67-0.91,15.46-0.89c-4.14-1.19-8.46-2.13-12.93-2.76
				c-39.66-3.3-75.15,15.92-79.87,39.18c-4.14,23.46,21.52,54.31,65.48,56.36c21.58,0.08,43.4-4.49,58.54-13.12l-0.3-0.91
				L198.89,126.76z M243.96,141.07l-0.23-5.8c3.06-2.48,4.88-4.63,4.16-5.79c-0.04-0.06-0.08-0.12-0.13-0.17
				c-0.63-0.66-2.18-0.5-4.26,0.22l-0.42-10.43c1.8-1.43,3.22-2.76,4.01-3.88c0.66-0.92,0.89-1.69,0.55-2.24
				c-0.04-0.06-0.08-0.12-0.13-0.17c-0.32-0.34-0.89-0.46-1.64-0.4c-0.81,0.06-1.84,0.33-3.03,0.77l-0.28-7.01l-0.23-5.77
				c8.92-6.25,15.31-12.16,13.61-14.91c-0.07-0.11-0.14-0.21-0.23-0.3c-2.11-2.21-9.99,0.8-19.2,5.77l-11.2-6.19
				c1.91-1.79,2.89-3.3,2.33-4.2c-0.04-0.06-0.08-0.12-0.13-0.17c-0.82-0.86-3.19-0.32-6.29,1.01c-0.36,0.15-0.72,0.32-1.1,0.49
				l-9.13-5.05c0.66-0.65,1.19-1.25,1.56-1.8c0.58-0.86,0.78-1.58,0.46-2.1c-0.04-0.06-0.08-0.12-0.13-0.17
				c-0.6-0.63-2.01-0.51-3.93,0.11c-0.9,0.29-1.9,0.69-2.99,1.18l-12.52-6.93l-1.8-0.99l-1.17,0.75l-1.77,1.09l19.59,19.53
				l12.61,12.56l0.17,0.17c-0.03,0.02-0.06,0.04-0.09,0.06c-6.29,4.12-12.08,8.32-16.02,11.59l-14.71-8.14l-0.11-0.06l-1.9,1.17
				l-1.07,0.66l11.96,11.92c-0.93,1.08-1.55,1.99-1.88,2.72c-0.33,0.73-0.38,1.28-0.17,1.63c0.03,0.05,0.06,0.09,0.1,0.13
				c0.35,0.36,1.09,0.52,2.22,0.43c0.69-0.05,1.52-0.2,2.49-0.44l1.33,4.02l3.93,11.93l0.03,0.09l2.97-1.83l-0.02-0.41l-0.17-4.31
				l-0.49-12.21c3.76-1.64,8.6-4.09,13.72-6.94c1.29-0.72,2.6-1.46,3.92-2.22l10.73,32.55l3.58,10.86l2.97-1.83L243.96,141.07z"/>
			<path class="st2" d="M197.59,124.56c-1.73,0.01-3.45-0.41-4.73-1.75c-0.24-0.25-0.46-0.53-0.64-0.83
				c-1.26-2.04-0.78-4.2,0.1-5.95l-9.13-9.09l-1.11-1.11c-15.12,6.9-34.15,11.04-50.72,11.14c-23.57,0.14-40.38-7.95-39.37-19.88
				c1.23-14.55,28.28-31.87,64.52-36.01c5.36-0.61,10.38-0.89,15.04-0.87c-4.03-1.16-8.23-2.07-12.58-2.69
				C120.4,54.31,85.88,73,81.29,95.63c-4.03,22.82,20.93,52.82,63.68,54.82c20.98,0.08,42.21-4.36,56.93-12.76l-0.29-0.88
				L197.59,124.56z M241.42,138.48l-0.22-5.64c2.98-2.42,4.75-4.51,4.05-5.63c-0.04-0.06-0.08-0.11-0.13-0.16
				c-0.61-0.64-2.12-0.48-4.15,0.22l-0.4-10.14c1.75-1.39,3.13-2.69,3.9-3.77c0.64-0.9,0.87-1.64,0.54-2.18
				c-0.04-0.06-0.08-0.11-0.13-0.16c-0.32-0.33-0.87-0.45-1.6-0.39c-0.79,0.06-1.79,0.32-2.94,0.75l-0.27-6.82l-0.22-5.62
				c8.68-6.08,14.89-11.83,13.24-14.5c-0.06-0.1-0.14-0.2-0.22-0.29c-2.05-2.15-9.72,0.78-18.68,5.61l-10.89-6.02
				c1.85-1.74,2.81-3.21,2.27-4.08c-0.04-0.06-0.08-0.11-0.13-0.16c-0.8-0.84-3.1-0.31-6.11,0.99c-0.35,0.15-0.7,0.31-1.07,0.48
				l-8.88-4.91c0.64-0.63,1.16-1.22,1.52-1.75c0.57-0.84,0.76-1.54,0.44-2.04c-0.04-0.06-0.08-0.11-0.13-0.16
				c-0.58-0.61-1.96-0.5-3.82,0.11c-0.87,0.28-1.85,0.67-2.91,1.15l-12.18-6.74l-1.75-0.97l-1.16,0.72l-1.73,1.06l19.06,18.99
				l12.26,12.22l0.17,0.17c-0.03,0.02-0.06,0.04-0.09,0.06c-6.12,4.01-11.75,8.09-15.58,11.27l-14.31-7.91l-0.11-0.06l-1.85,1.14
				l-1.04,0.64l11.63,11.59c-0.9,1.05-1.51,1.94-1.83,2.65c-0.32,0.71-0.37,1.24-0.16,1.58c0.03,0.05,0.06,0.09,0.1,0.13
				c0.34,0.35,1.06,0.5,2.15,0.42c0.67-0.05,1.48-0.19,2.42-0.43l1.29,3.91l3.82,11.6l0.03,0.09l2.89-1.78l-0.02-0.4l-0.17-4.2
				l-0.47-11.88c3.66-1.6,8.36-3.98,13.34-6.75c1.26-0.7,2.53-1.42,3.81-2.16l10.43,31.66l3.48,10.56l2.89-1.78L241.42,138.48z"/>
			<path class="st3" d="M191.5,123.18c-1.73,0.01-3.45-0.41-4.73-1.75c-0.24-0.25-0.46-0.53-0.64-0.83c-1.26-2.04-0.78-4.2,0.1-5.95
				l-9.13-9.09l-1.11-1.11c-15.12,6.9-34.15,11.04-50.72,11.14c-23.57,0.14-40.38-7.95-39.37-19.88
				c1.23-14.55,28.28-31.87,64.52-36.01c5.36-0.61,10.38-0.89,15.04-0.87c-4.03-1.16-8.23-2.07-12.58-2.69
				c-38.57-3.21-73.09,15.48-77.68,38.11c-4.03,22.82,20.93,52.82,63.68,54.82c20.98,0.08,42.21-4.36,56.93-12.76l-0.29-0.88
				L191.5,123.18z M235.34,137.11l-0.22-5.64c2.98-2.42,4.75-4.51,4.05-5.63c-0.04-0.06-0.08-0.11-0.13-0.16
				c-0.61-0.64-2.12-0.48-4.15,0.22l-0.4-10.14c1.75-1.39,3.13-2.69,3.9-3.77c0.64-0.9,0.87-1.64,0.54-2.18
				c-0.04-0.06-0.08-0.11-0.13-0.16c-0.32-0.33-0.87-0.45-1.6-0.39c-0.79,0.06-1.79,0.32-2.94,0.75l-0.27-6.82l-0.22-5.62
				c8.68-6.08,14.89-11.83,13.24-14.5c-0.06-0.1-0.14-0.2-0.22-0.29c-2.05-2.15-9.72,0.78-18.68,5.61l-10.89-6.02
				c1.85-1.74,2.81-3.21,2.27-4.08c-0.04-0.06-0.08-0.11-0.13-0.16c-0.8-0.84-3.1-0.31-6.11,0.99c-0.35,0.15-0.7,0.31-1.07,0.48
				l-8.88-4.91c0.64-0.63,1.16-1.22,1.52-1.75c0.57-0.84,0.76-1.54,0.44-2.04c-0.04-0.06-0.08-0.11-0.13-0.16
				c-0.58-0.61-1.96-0.5-3.82,0.11c-0.87,0.28-1.85,0.67-2.91,1.15l-12.18-6.74l-1.75-0.97l-1.16,0.72l-1.73,1.06l19.06,18.99
				l12.26,12.22l0.17,0.17c-0.03,0.02-0.06,0.04-0.09,0.06c-6.12,4.01-11.75,8.09-15.58,11.27l-14.31-7.91l-0.11-0.06l-1.85,1.14
				l-1.04,0.64l11.63,11.59c-0.9,1.05-1.51,1.94-1.83,2.65c-0.32,0.71-0.37,1.24-0.16,1.58c0.03,0.05,0.06,0.09,0.1,0.13
				c0.34,0.35,1.06,0.5,2.15,0.42c0.67-0.05,1.48-0.19,2.42-0.43l1.29,3.91l3.82,11.6l0.03,0.09l2.89-1.78l-0.02-0.4l-0.17-4.2
				l-0.47-11.88c3.66-1.6,8.36-3.98,13.34-6.75c1.26-0.7,2.53-1.42,3.81-2.16l10.43,31.66l3.48,10.56l2.89-1.78L235.34,137.11z"/>
		</g>
		<g>
			<g class="st4">
				<path class="st5" d="M50.84,177.42h4.74l5.53,18.65c1.21,4.06,2.05,7.37,3.32,11.38h0.21c1.26-4,2.16-7.32,3.32-11.38
					l5.53-18.65h4.53l-10.96,34.55H61.9L50.84,177.42z"/>
				<path class="st5" d="M82.76,194.54c0-11.17,5.48-17.75,13.27-17.75c7.8,0,13.27,6.58,13.27,17.75
					c0,11.32-5.48,18.07-13.27,18.07C88.23,212.61,82.76,205.86,82.76,194.54z M104.72,194.54c0-8.69-3.48-13.85-8.69-13.85
					c-5.21,0-8.69,5.16-8.69,13.85c0,8.85,3.48,14.17,8.69,14.17C101.25,208.71,104.72,203.39,104.72,194.54z"/>
				<path class="st5" d="M117.83,177.42h21.39v3.74h-16.96v10.8h14.33v3.74h-14.33v12.54h17.49v3.74h-21.91V177.42z"/>
				<path class="st5" d="M147.22,177.42h5.37l4.85,14.75l1.69,5.58h0.21l1.63-5.58l4.9-14.75h5.37v34.55h-4.21V194.7
					c0-3.37,0.53-9.27,0.74-12.22h-0.16l-1.95,6.74l-4.95,13.59h-3.16l-4.85-13.59l-2-6.74h-0.11c0.32,2.95,0.74,8.85,0.74,12.22
					v17.28h-4.11V177.42z"/>
				<path class="st5" d="M188.3,177.42h5.06L205,211.98h-4.74l-5.95-19.28c-1.21-3.85-2.37-7.64-3.42-11.64h-0.21
					c-1.11,4-2.21,7.79-3.42,11.64l-6.06,19.28h-4.53L188.3,177.42z M182.83,197.91h15.85v3.58h-15.85V197.91z"/>
				<path class="st5" d="M211.64,208.23h8.59v-27.07h-8.59v-3.74h21.6v3.74h-8.59v27.07h8.59v3.74h-21.6V208.23z"/>
				<path class="st5" d="M241.76,207.5l2.63-3.05c2.63,2.58,6.22,4.27,10.11,4.27c4.74,0,7.48-2.26,7.48-5.43
					c0-3.69-2.69-4.74-6.16-6.21l-5-2.21c-3.42-1.37-7.43-3.79-7.43-8.9c0-5.27,4.74-9.17,11.32-9.17c4.32,0,8.11,1.74,10.64,4.27
					l-2.32,2.84c-2.26-2-4.9-3.21-8.48-3.21c-4,0-6.69,1.9-6.69,5c0,3.32,3.21,4.53,6.16,5.69l4.85,2.16
					c4.27,1.69,7.64,4.11,7.64,9.22c0,5.48-4.63,9.85-12.22,9.85C249.24,212.61,244.87,210.61,241.76,207.5z"/>
			</g>
		</g>
	</g>
</g>
<g id="LINHA">
</g>
</svg>
