<?xml version="1.0" encoding="utf-8"?>
<!-- Generator: Adobe Illustrator 25.4.0, SVG Export Plug-In . SVG Version: 6.00 Build 0)  -->
<svg version="1.1" id="Camada_1" xmlns="http://www.w3.org/2000/svg" xmlns:xlink="http://www.w3.org/1999/xlink" x="0px" y="0px"
	 viewBox="0 0 512.04 277.86" style="enable-background:new 0 0 512.04 277.86;" xml:space="preserve">
<style type="text/css">
	.st0{fill:#F3E600;}
	.st1{opacity:0.35;fill:#24388D;enable-background:new    ;}
	.st2{opacity:0.81;fill:#24388D;enable-background:new    ;}
	.st3{fill:#24388D;}
	.st4{enable-background:new    ;}
	.st5{fill:#D1D1D1;}
</style>
<g id="Camada_3">
</g>
<g id="background">
	<g id="Camada_4">
	</g>
</g>
<g id="LOGO_00000025430442618270952760000004446189538371737254_">
</g>
<path class="st0" d="M188.8,216.84H50.44c-4.03,0-7.32-3.29-7.32-7.32V83.43c0-4.03,3.29-7.32,7.32-7.32H188.8
	c4.03,0,7.32,3.29,7.32,7.32v126.09C196.12,213.55,192.83,216.84,188.8,216.84z"/>
<g>
	<path class="st1" d="M170.52,166.5c-1.78,0.01-3.55-0.42-4.86-1.8c-0.25-0.26-0.47-0.55-0.66-0.86c-1.3-2.1-0.8-4.32,0.1-6.12
		l-9.38-9.35l-1.14-1.14c-15.55,7.09-35.11,11.35-52.15,11.45c-24.23,0.14-41.52-8.18-40.48-20.44
		c1.26-14.96,29.08-32.77,66.34-37.02c5.51-0.63,10.67-0.91,15.46-0.89c-4.14-1.19-8.46-2.13-12.93-2.76
		c-39.66-3.3-75.15,15.92-79.87,39.18c-4.14,23.46,21.52,54.31,65.48,56.36c21.58,0.08,43.4-4.49,58.54-13.12l-0.3-0.91
		L170.52,166.5z M215.59,180.81l-0.23-5.8c3.06-2.48,4.88-4.63,4.16-5.79c-0.04-0.06-0.08-0.12-0.13-0.17
		c-0.63-0.66-2.18-0.5-4.26,0.22l-0.42-10.43c1.8-1.43,3.22-2.76,4.01-3.88c0.66-0.92,0.89-1.69,0.55-2.24
		c-0.04-0.06-0.08-0.12-0.13-0.17c-0.32-0.34-0.89-0.46-1.64-0.4c-0.81,0.06-1.84,0.33-3.03,0.77l-0.28-7.01l-0.23-5.77
		c8.92-6.25,15.31-12.16,13.61-14.91c-0.07-0.11-0.14-0.21-0.23-0.3c-2.11-2.21-9.99,0.8-19.2,5.77l-11.2-6.19
		c1.91-1.79,2.89-3.3,2.33-4.2c-0.04-0.06-0.08-0.12-0.13-0.17c-0.82-0.86-3.19-0.32-6.29,1.01c-0.36,0.15-0.72,0.32-1.1,0.49
		l-9.13-5.05c0.66-0.65,1.19-1.25,1.56-1.8c0.58-0.86,0.78-1.58,0.46-2.1c-0.04-0.06-0.08-0.12-0.13-0.17
		c-0.6-0.63-2.01-0.51-3.93,0.11c-0.9,0.29-1.9,0.69-2.99,1.18l-12.52-6.93l-1.8-0.99l-1.17,0.75l-1.77,1.09l19.59,19.53
		l12.61,12.56l0.17,0.17c-0.03,0.02-0.06,0.04-0.09,0.06c-6.29,4.12-12.08,8.32-16.02,11.59l-14.71-8.14l-0.11-0.06l-1.9,1.17
		l-1.07,0.66l11.96,11.92c-0.93,1.08-1.55,1.99-1.88,2.72c-0.33,0.73-0.38,1.28-0.17,1.63c0.03,0.05,0.06,0.09,0.1,0.13
		c0.35,0.36,1.09,0.52,2.22,0.43c0.69-0.05,1.52-0.2,2.49-0.44l1.33,4.02l3.93,11.93l0.03,0.09l2.97-1.83l-0.02-0.41l-0.17-4.31
		l-0.49-12.21c3.76-1.64,8.6-4.09,13.72-6.94c1.29-0.72,2.6-1.46,3.92-2.22l10.73,32.55l3.58,10.86l2.97-1.83L215.59,180.81z"/>
	<path class="st2" d="M169.22,164.3c-1.73,0.01-3.45-0.41-4.73-1.75c-0.24-0.25-0.46-0.53-0.64-0.83c-1.26-2.04-0.78-4.2,0.1-5.95
		l-9.13-9.09l-1.11-1.11c-15.12,6.9-34.15,11.04-50.72,11.14c-23.57,0.14-40.38-7.95-39.37-19.88
		c1.23-14.55,28.28-31.87,64.52-36.01c5.36-0.61,10.38-0.89,15.04-0.87c-4.03-1.16-8.23-2.07-12.58-2.69
		c-38.57-3.21-73.09,15.48-77.68,38.11c-4.03,22.82,20.93,52.82,63.68,54.82c20.98,0.08,42.21-4.36,56.93-12.76l-0.29-0.88
		L169.22,164.3z M213.05,178.22l-0.22-5.64c2.98-2.42,4.75-4.51,4.05-5.63c-0.04-0.06-0.08-0.11-0.13-0.16
		c-0.61-0.64-2.12-0.48-4.15,0.22l-0.4-10.14c1.75-1.39,3.13-2.69,3.9-3.77c0.64-0.9,0.87-1.64,0.54-2.18
		c-0.04-0.06-0.08-0.11-0.13-0.16c-0.32-0.33-0.87-0.45-1.6-0.39c-0.79,0.06-1.79,0.32-2.94,0.75l-0.27-6.82l-0.22-5.62
		c8.68-6.08,14.89-11.83,13.24-14.5c-0.06-0.1-0.14-0.2-0.22-0.29c-2.05-2.15-9.72,0.78-18.68,5.61l-10.89-6.02
		c1.85-1.74,2.81-3.21,2.27-4.08c-0.04-0.06-0.08-0.11-0.13-0.16c-0.8-0.84-3.1-0.31-6.11,0.99c-0.35,0.15-0.7,0.31-1.07,0.48
		l-8.88-4.91c0.64-0.63,1.16-1.22,1.52-1.75c0.57-0.84,0.76-1.54,0.44-2.04c-0.04-0.06-0.08-0.11-0.13-0.16
		c-0.58-0.61-1.96-0.5-3.82,0.11c-0.87,0.28-1.85,0.67-2.91,1.15l-12.18-6.74l-1.75-0.97l-1.16,0.72l-1.73,1.06l19.06,18.99
		l12.26,12.22l0.17,0.17c-0.03,0.02-0.06,0.04-0.09,0.06c-6.12,4.01-11.75,8.09-15.58,11.27l-14.31-7.91l-0.11-0.06l-1.85,1.14
		l-1.04,0.64l11.63,11.59c-0.9,1.05-1.51,1.94-1.83,2.65c-0.32,0.71-0.37,1.24-0.16,1.58c0.03,0.05,0.06,0.09,0.1,0.13
		c0.34,0.35,1.06,0.5,2.15,0.42c0.67-0.05,1.48-0.19,2.42-0.43l1.29,3.91l3.82,11.6l0.03,0.09l2.89-1.78l-0.02-0.4l-0.17-4.2
		l-0.47-11.88c3.66-1.6,8.36-3.98,13.34-6.75c1.26-0.7,2.53-1.42,3.81-2.16l10.43,31.66l3.48,10.56l2.89-1.78L213.05,178.22z"/>
	<path class="st3" d="M163.13,162.92c-1.73,0.01-3.45-0.41-4.73-1.75c-0.24-0.25-0.46-0.53-0.64-0.83c-1.26-2.04-0.78-4.2,0.1-5.95
		l-9.13-9.09l-1.11-1.11c-15.12,6.9-34.15,11.04-50.72,11.14c-23.57,0.14-40.38-7.95-39.37-19.88
		c1.23-14.55,28.28-31.87,64.52-36.01c5.36-0.61,10.38-0.89,15.04-0.87c-4.03-1.16-8.23-2.07-12.58-2.69
		c-38.57-3.21-73.09,15.48-77.68,38.11c-4.03,22.82,20.93,52.82,63.68,54.82c20.98,0.08,42.21-4.36,56.93-12.76l-0.29-0.88
		L163.13,162.92z M206.97,176.85l-0.22-5.64c2.98-2.42,4.75-4.51,4.05-5.63c-0.04-0.06-0.08-0.11-0.13-0.16
		c-0.61-0.64-2.12-0.48-4.15,0.22l-0.4-10.14c1.75-1.39,3.13-2.69,3.9-3.77c0.64-0.9,0.87-1.64,0.54-2.18
		c-0.04-0.06-0.08-0.11-0.13-0.16c-0.32-0.33-0.87-0.45-1.6-0.39c-0.79,0.06-1.79,0.32-2.94,0.75l-0.27-6.82l-0.22-5.62
		c8.68-6.08,14.89-11.83,13.24-14.5c-0.06-0.1-0.14-0.2-0.22-0.29c-2.05-2.15-9.72,0.78-18.68,5.61l-10.89-6.02
		c1.85-1.74,2.81-3.21,2.27-4.08c-0.04-0.06-0.08-0.11-0.13-0.16c-0.8-0.84-3.1-0.31-6.11,0.99c-0.35,0.15-0.7,0.31-1.07,0.48
		l-8.88-4.91c0.64-0.63,1.16-1.22,1.52-1.75c0.57-0.84,0.76-1.54,0.44-2.04c-0.04-0.06-0.08-0.11-0.13-0.16
		c-0.58-0.61-1.96-0.5-3.82,0.11c-0.87,0.28-1.85,0.67-2.91,1.15L157.85,105l-1.75-0.97l-1.16,0.72l-1.73,1.06l19.06,18.99
		l12.26,12.22l0.17,0.17c-0.03,0.02-0.06,0.04-0.09,0.06c-6.12,4.01-11.75,8.09-15.58,11.27l-14.31-7.91l-0.11-0.06l-1.85,1.14
		l-1.04,0.64l11.63,11.59c-0.9,1.05-1.51,1.94-1.83,2.65c-0.32,0.71-0.37,1.24-0.16,1.58c0.03,0.05,0.06,0.09,0.1,0.13
		c0.34,0.35,1.06,0.5,2.15,0.42c0.67-0.05,1.48-0.19,2.42-0.43l1.29,3.91l3.82,11.6l0.03,0.09l2.89-1.78l-0.02-0.4l-0.17-4.2
		l-0.47-11.88c3.66-1.6,8.36-3.98,13.34-6.75c1.26-0.7,2.53-1.42,3.81-2.16l10.43,31.66l3.48,10.56l2.89-1.78L206.97,176.85z"/>
</g>
<g>
	<g class="st4">
		<path class="st5" d="M227.85,147.26h5.87l6.84,23.08c1.5,5.02,2.54,9.13,4.11,14.08h0.26c1.56-4.95,2.67-9.06,4.11-14.08
			l6.85-23.08h5.61l-13.56,42.77h-6.39L227.85,147.26z"/>
		<path class="st5" d="M267.35,168.44c0-13.82,6.78-21.97,16.43-21.97c9.65,0,16.43,8.15,16.43,21.97
			c0,14.02-6.78,22.36-16.43,22.36C274.13,190.8,267.35,182.46,267.35,168.44z M294.54,168.44c0-10.76-4.3-17.15-10.76-17.15
			c-6.45,0-10.76,6.39-10.76,17.15c0,10.95,4.3,17.54,10.76,17.54C290.23,185.98,294.54,179.4,294.54,168.44z"/>
		<path class="st5" d="M310.77,147.26h26.47v4.63h-20.99v13.36h17.73v4.63h-17.73v15.52h21.64v4.63h-27.12V147.26z"/>
		<path class="st5" d="M347.14,147.26h6.65l6,18.25l2.09,6.91h0.26l2.02-6.91l6.06-18.25h6.65v42.77h-5.22v-21.38
			c0-4.17,0.65-11.47,0.91-15.12h-0.2l-2.41,8.34l-6.13,16.82h-3.91l-6-16.82l-2.48-8.34h-0.13c0.39,3.65,0.91,10.95,0.91,15.12
			v21.38h-5.08V147.26z"/>
		<path class="st5" d="M397.98,147.26h6.26l14.41,42.77h-5.87l-7.37-23.86c-1.5-4.76-2.93-9.45-4.24-14.41h-0.26
			c-1.37,4.95-2.74,9.65-4.24,14.41l-7.5,23.86h-5.61L397.98,147.26z M391.2,172.62h19.62v4.43H391.2V172.62z"/>
		<path class="st5" d="M426.86,185.39h10.63v-33.51h-10.63v-4.63h26.73v4.63h-10.63v33.51h10.63v4.63h-26.73V185.39z"/>
		<path class="st5" d="M464.15,184.48l3.26-3.78c3.26,3.19,7.69,5.28,12.52,5.28c5.87,0,9.26-2.8,9.26-6.72
			c0-4.56-3.33-5.87-7.63-7.69l-6.19-2.74c-4.24-1.69-9.19-4.69-9.19-11.02c0-6.52,5.87-11.34,14.02-11.34
			c5.35,0,10.04,2.15,13.17,5.28l-2.87,3.52c-2.8-2.48-6.06-3.98-10.5-3.98c-4.95,0-8.28,2.35-8.28,6.19c0,4.11,3.98,5.61,7.63,7.04
			l6,2.67c5.28,2.09,9.45,5.08,9.45,11.41c0,6.78-5.74,12.19-15.12,12.19C473.4,190.8,467.99,188.33,464.15,184.48z"/>
	</g>
</g>
</svg>
